<svg width="18" height="18" viewBox="0 0 18 18" fill="none" xmlns="http://www.w3.org/2000/svg">
<path d="M1.31204 13.1625C1.14954 13.05 1.05279 12.897 1.02179 12.7035C0.990788 12.51 1.02504 12.3255 1.12454 12.15L3.95579 7.6125C4.09329 7.4 4.28404 7.28426 4.52804 7.26526C4.77204 7.24626 4.98129 7.33075 5.15579 7.51875L6.74954 9.37501L9.13079 5.49375C9.26829 5.25625 9.47779 5.1375 9.75929 5.1375C10.0408 5.1375 10.2563 5.25001 10.4058 5.47501L11.1745 6.63751C11.312 6.85001 11.3528 7.05326 11.2968 7.24726C11.2408 7.44126 11.1313 7.58801 10.9683 7.68751C10.8058 7.78751 10.6278 7.82826 10.4343 7.80976C10.2408 7.79126 10.075 7.6755 9.93704 7.4625L9.80579 7.275L7.49954 11.025C7.36204 11.2375 7.16829 11.3563 6.91829 11.3813C6.66829 11.4063 6.45579 11.3188 6.28079 11.1188L4.68704 9.26251L2.39954 12.9563C2.28704 13.1438 2.12129 13.2595 1.90229 13.3035C1.68329 13.3475 1.48654 13.3005 1.31204 13.1625ZM12.0558 15.4313C11.1183 15.4313 10.3215 15.1033 9.66554 14.4473C9.00954 13.7913 8.68129 12.9943 8.68079 12.0563C8.68079 11.1188 9.00904 10.322 9.66554 9.666C10.322 9.01 11.1188 8.68175 12.0558 8.68125C12.9933 8.68125 13.7903 9.0095 14.4468 9.666C15.1033 10.3225 15.4313 11.1193 15.4308 12.0563C15.4308 12.3813 15.387 12.697 15.2995 13.0035C15.212 13.31 15.0808 13.5943 14.9058 13.8563L16.7058 15.6563C16.8558 15.8063 16.934 15.9813 16.9405 16.1813C16.947 16.3813 16.875 16.5563 16.7245 16.7063C16.5745 16.8563 16.3965 16.9313 16.1905 16.9313C15.9845 16.9313 15.8063 16.8563 15.6558 16.7063L13.837 14.9063C13.587 15.0813 13.309 15.2125 13.003 15.3C12.697 15.3875 12.3813 15.4313 12.0558 15.4313ZM12.0558 13.9313C12.5808 13.9313 13.0245 13.75 13.387 13.3875C13.7495 13.025 13.9308 12.5813 13.9308 12.0563C13.9308 11.5313 13.7495 11.0875 13.387 10.725C13.0245 10.3625 12.5808 10.1813 12.0558 10.1813C11.5308 10.1813 11.087 10.3625 10.7245 10.725C10.362 11.0875 10.1808 11.5313 10.1808 12.0563C10.1808 12.5813 10.362 13.025 10.7245 13.3875C11.087 13.75 11.5308 13.9313 12.0558 13.9313ZM12.9745 7.72501C12.812 7.62501 12.6995 7.48126 12.637 7.29376C12.5745 7.10626 12.612 6.90626 12.7495 6.69376L15.5995 2.175C15.712 2 15.8745 1.8875 16.087 1.8375C16.2995 1.7875 16.4933 1.83125 16.6683 1.96875C16.8308 2.08125 16.9308 2.23425 16.9683 2.42775C17.0058 2.62125 16.9745 2.80575 16.8745 2.98125L14.0058 7.48126C13.8683 7.69376 13.7025 7.8125 13.5085 7.8375C13.3145 7.8625 13.1365 7.82501 12.9745 7.72501Z" fill="#F8F8F8"/>
</svg>
