<svg width="20" height="20" viewBox="0 0 20 20" fill="none" xmlns="http://www.w3.org/2000/svg">
<g clip-path="url(#clip0_279_1425)">
<path d="M10 2C8.21997 2 6.47991 2.52784 4.99987 3.51677C3.51983 4.50571 2.36628 5.91131 1.68509 7.55585C1.0039 9.20038 0.82567 11.01 1.17294 12.7558C1.5202 14.5016 2.37737 16.1053 3.63604 17.364C4.89472 18.6226 6.49836 19.4798 8.24419 19.8271C9.99002 20.1743 11.7996 19.9961 13.4442 19.3149C15.0887 18.6337 16.4943 17.4802 17.4832 16.0001C18.4722 14.5201 19 12.78 19 11C19 8.61305 18.0518 6.32387 16.364 4.63604C14.6761 2.94821 12.387 2 10 2ZM15 12H5V10H15V12Z" fill="white"/>
</g>
<defs>
<clipPath id="clip0_279_1425">
<rect width="20" height="20" fill="white"/>
</clipPath>
</defs>
</svg>
