<svg width="18" height="19" viewBox="0 0 18 19" fill="none" xmlns="http://www.w3.org/2000/svg">
<path d="M13.5003 18.5C14.6938 18.5 15.8383 18.0259 16.6823 17.182C17.5262 16.3381 18.0003 15.1935 18.0003 14C18.0003 12.8065 17.5262 11.6619 16.6823 10.818C15.8383 9.97411 14.6938 9.5 13.5003 9.5C12.3068 9.5 11.1622 9.97411 10.3183 10.818C9.47438 11.6619 9.00028 12.8065 9.00028 14C9.00028 15.1935 9.47438 16.3381 10.3183 17.182C11.1622 18.0259 12.3068 18.5 13.5003 18.5ZM13.9554 10.9734L15.884 12.902C16.0047 13.0227 16.0725 13.1864 16.0725 13.3571C16.0725 13.5279 16.0047 13.6916 15.884 13.8123C15.7633 13.933 15.5996 14.0008 15.4289 14.0008C15.2581 14.0008 15.0944 13.933 14.9737 13.8123L14.1431 12.9804V16.5714C14.1431 16.7419 14.0754 16.9054 13.9548 17.026C13.8343 17.1466 13.6708 17.2143 13.5003 17.2143C13.3298 17.2143 13.1663 17.1466 13.0457 17.026C12.9252 16.9054 12.8574 16.7419 12.8574 16.5714V12.9804L12.0269 13.8123C11.9061 13.933 11.7424 14.0008 11.5717 14.0008C11.401 14.0008 11.2373 13.933 11.1166 13.8123C10.9959 13.6916 10.928 13.5279 10.928 13.3571C10.928 13.1864 10.9959 13.0227 11.1166 12.902L13.0451 10.9734C13.1049 10.9136 13.1758 10.8661 13.2539 10.8337C13.332 10.8012 13.4157 10.7846 13.5003 10.7846C13.5848 10.7846 13.6686 10.8012 13.7467 10.8337C13.8248 10.8661 13.8957 10.9136 13.9554 10.9734ZM11.5717 4.35714C11.5717 5.38012 11.1653 6.3612 10.442 7.08455C9.71862 7.80791 8.73754 8.21429 7.71456 8.21429C6.69159 8.21429 5.71051 7.80791 4.98715 7.08455C4.2638 6.3612 3.85742 5.38012 3.85742 4.35714C3.85742 3.33416 4.2638 2.35309 4.98715 1.62973C5.71051 0.906377 6.69159 0.5 7.71456 0.5C8.73754 0.5 9.71862 0.906377 10.442 1.62973C11.1653 2.35309 11.5717 3.33416 11.5717 4.35714Z" fill="white"/>
<path d="M0 14.6429C0 15.9286 1.28571 15.9286 1.28571 15.9286H8.04343C7.82486 15.3091 7.71355 14.6569 7.71429 14C7.71344 13.1731 7.89024 12.3557 8.23273 11.603C8.57522 10.8504 9.07541 10.1801 9.69943 9.63757C9.099 9.54886 8.43943 9.5 7.71429 9.5C1.28571 9.5 0 13.3571 0 14.6429Z" fill="white"/>
</svg>
