<svg width="18" height="18" viewBox="0 0 18 18" fill="none" xmlns="http://www.w3.org/2000/svg">
<path d="M14 12.4378V15.188C14.0001 15.3849 13.9255 15.5745 13.7912 15.7186C13.657 15.8627 13.4731 15.9504 13.2767 15.9642C12.9368 15.9876 12.6591 16 12.4444 16C5.57122 16 0 10.4288 0 3.55556C0 3.34089 0.0116667 3.06322 0.0357778 2.72333C0.0495619 2.5269 0.137341 2.34301 0.281403 2.20876C0.425465 2.07452 0.615084 1.99991 0.812 2H3.56222C3.6587 1.9999 3.75176 2.03567 3.82334 2.10035C3.89493 2.16503 3.93991 2.25401 3.94956 2.35C3.96744 2.52889 3.98378 2.67122 3.99933 2.77933C4.1539 3.85805 4.47067 4.9072 4.93889 5.89122C5.01278 6.04678 4.96456 6.23267 4.82456 6.33222L3.14611 7.53156C4.17235 9.9228 6.07798 11.8284 8.46922 12.8547L9.667 11.1793C9.71596 11.1109 9.78739 11.0618 9.86883 11.0406C9.95027 11.0194 10.0366 11.0275 10.1127 11.0634C11.0966 11.5308 12.1454 11.8468 13.2238 12.0007C13.3319 12.0162 13.4742 12.0326 13.6516 12.0504C13.7474 12.0603 13.8362 12.1053 13.9007 12.1769C13.9652 12.2485 14.0001 12.3414 14 12.4378Z" fill="white"/>
</svg>
