<svg width="19" height="19" viewBox="0 0 19 19" fill="none" xmlns="http://www.w3.org/2000/svg">
<path d="M9.5 18C14.1944 18 18 14.1944 18 9.49998C18 4.80556 14.1944 1 9.5 1C4.80558 1 1 4.80556 1 9.49998C1 14.1944 4.80558 18 9.5 18Z" stroke="white" stroke-width="2"/>
<path d="M1.84961 12.4687C2.96818 12.9173 3.77341 12.9173 4.26527 12.4687C5.00307 11.7959 4.36642 9.7539 5.39972 9.19073C6.43298 8.62756 8.00726 11.1239 9.4787 10.3025C10.9501 9.48109 9.34006 7.29081 10.3612 6.40286C11.3823 5.51491 12.7101 6.51633 12.9422 5.0316C13.1742 3.54688 11.8593 4.19082 11.6069 2.78778C11.4387 1.85243 11.4387 1.36059 11.6069 1.31226" stroke="white" stroke-width="2" stroke-linecap="round"/>
<path d="M11.6336 17.7239C10.8371 16.9088 10.5503 16.1511 10.7734 15.4508C11.1079 14.4004 11.6598 14.4624 11.9004 13.813C12.141 13.1634 11.4613 12.2384 12.9695 11.4476C13.975 10.9204 15.3575 11.5312 17.1169 13.2801" stroke="white" stroke-width="2" stroke-linecap="round"/>
</svg>
