<svg width="18" height="17" viewBox="0 0 18 17" fill="none" xmlns="http://www.w3.org/2000/svg">
<path fill-rule="evenodd" clip-rule="evenodd" d="M2.98094 7.39867C5.60708 2.79956 6.92015 0.5 9 0.5C11.079 0.5 12.3929 2.79956 15.0191 7.39867L15.3466 7.972C17.5291 11.7942 18.6208 13.7053 17.6344 15.1027C16.648 16.5 14.2073 16.5 9.32759 16.5H8.67241C3.79273 16.5 1.35198 16.5 0.365608 15.1027C-0.620769 13.7053 0.470905 11.7942 2.65335 7.972L2.98094 7.39867ZM9 4.27778C9.17902 4.27778 9.3507 4.34802 9.47729 4.47304C9.60387 4.59806 9.67498 4.76763 9.67498 4.94444V9.38889C9.67498 9.5657 9.60387 9.73527 9.47729 9.86029C9.3507 9.98532 9.17902 10.0556 9 10.0556C8.82098 10.0556 8.6493 9.98532 8.52272 9.86029C8.39613 9.73527 8.32502 9.5657 8.32502 9.38889V4.94444C8.32502 4.76763 8.39613 4.59806 8.52272 4.47304C8.6493 4.34802 8.82098 4.27778 9 4.27778ZM9 12.9444C9.23869 12.9444 9.4676 12.8508 9.63638 12.6841C9.80516 12.5174 9.89998 12.2913 9.89998 12.0556C9.89998 11.8198 9.80516 11.5937 9.63638 11.427C9.4676 11.2603 9.23869 11.1667 9 11.1667C8.76131 11.1667 8.5324 11.2603 8.36362 11.427C8.19484 11.5937 8.10002 11.8198 8.10002 12.0556C8.10002 12.2913 8.19484 12.5174 8.36362 12.6841C8.5324 12.8508 8.76131 12.9444 9 12.9444Z" fill="white"/>
</svg>
