<svg width="19" height="18" viewBox="0 0 19 18" fill="none" xmlns="http://www.w3.org/2000/svg">
<path d="M18.5 9C18.5 11.3869 17.5518 13.6761 15.864 15.364C14.1761 17.0518 11.8869 18 9.5 18C7.11305 18 4.82387 17.0518 3.13604 15.364C1.44821 13.6761 0.5 11.3869 0.5 9C0.5 6.61305 1.44821 4.32387 3.13604 2.63604C4.82387 0.948212 7.11305 0 9.5 0C11.8869 0 14.1761 0.948212 15.864 2.63604C17.5518 4.32387 18.5 6.61305 18.5 9ZM8.6 9.9V12.6C8.6 12.8387 8.69482 13.0676 8.8636 13.2364C9.03239 13.4052 9.2613 13.5 9.5 13.5C9.73869 13.5 9.96761 13.4052 10.1364 13.2364C10.3052 13.0676 10.4 12.8387 10.4 12.6V9.9C10.4 9.6613 10.3052 9.43239 10.1364 9.2636C9.96761 9.09482 9.73869 9 9.5 9C9.2613 9 9.03239 9.09482 8.8636 9.2636C8.69482 9.43239 8.6 9.6613 8.6 9.9ZM9.5 4.95C9.14196 4.95 8.79858 5.09223 8.54541 5.34541C8.29223 5.59858 8.15 5.94196 8.15 6.3C8.15 6.65804 8.29223 7.00142 8.54541 7.25459C8.79858 7.50777 9.14196 7.65 9.5 7.65C9.85804 7.65 10.2014 7.50777 10.4546 7.25459C10.7078 7.00142 10.85 6.65804 10.85 6.3C10.85 5.94196 10.7078 5.59858 10.4546 5.34541C10.2014 5.09223 9.85804 4.95 9.5 4.95Z" fill="white"/>
</svg>
