<svg width="18" height="18" viewBox="0 0 18 18" fill="none" xmlns="http://www.w3.org/2000/svg">
<path d="M16 13.6922V16.246C16.0001 16.4288 15.9202 16.6049 15.7763 16.7387C15.6325 16.8725 15.4355 16.954 15.225 16.9668C14.8608 16.9884 14.5633 17 14.3333 17C6.96917 17 1 11.8267 1 5.44444C1 5.24511 1.0125 4.98728 1.03833 4.67167C1.0531 4.48927 1.14715 4.31851 1.3015 4.19385C1.45585 4.06919 1.65902 3.99992 1.87 4H4.81667C4.92003 3.99991 5.01975 4.03312 5.09644 4.09318C5.17313 4.15324 5.22133 4.23587 5.23167 4.325C5.25083 4.49111 5.26833 4.62328 5.285 4.72367C5.45061 5.72533 5.79 6.69955 6.29167 7.61328C6.37083 7.75772 6.31917 7.93033 6.16917 8.02278L4.37083 9.13645C5.47038 11.3569 7.51212 13.1264 10.0742 14.0793L11.3575 12.5237C11.41 12.4601 11.4865 12.4145 11.5737 12.3949C11.661 12.3752 11.7535 12.3827 11.835 12.4161C12.8892 12.8501 14.013 13.1435 15.1683 13.2863C15.2842 13.3008 15.4367 13.3159 15.6267 13.3326C15.7294 13.3417 15.8245 13.3835 15.8936 13.45C15.9628 13.5164 16.0001 13.6028 16 13.6922Z" fill="white"/>
<path d="M13 2.00198V1.2193C13 1.02253 12.73 0.926338 12.575 1.06626L11.175 2.28619C11.075 2.37364 11.075 2.50919 11.175 2.59664L12.57 3.81658C12.73 3.95213 13 3.85593 13 3.65917V2.87648C14.655 2.87648 16 4.05269 16 5.5C16 5.84543 15.925 6.18211 15.78 6.48382C15.705 6.64123 15.76 6.8205 15.895 6.93856C16.15 7.16156 16.58 7.08285 16.715 6.7899C16.9 6.392 17 5.95474 17 5.5C17 3.56734 15.21 2.00198 13 2.00198ZM13 8.12352C11.345 8.12352 10 6.94731 10 5.5C10 5.15457 10.075 4.81789 10.22 4.51618C10.295 4.35877 10.24 4.1795 10.105 4.06144C9.85 3.83844 9.42 3.91715 9.285 4.2101C9.1 4.608 9 5.04526 9 5.5C9 7.43266 10.79 8.99802 13 8.99802V9.7807C13 9.97747 13.27 10.0737 13.425 9.93374L14.82 8.71381C14.92 8.62636 14.92 8.49081 14.82 8.40336L13.425 7.18342C13.3898 7.15321 13.3451 7.13279 13.2966 7.12475C13.2481 7.11671 13.1979 7.1214 13.1525 7.13823C13.107 7.15507 13.0683 7.18329 13.0412 7.21934C13.014 7.2554 12.9997 7.29767 13 7.34083V8.12352Z" fill="white"/>
</svg>
