<svg width="18" height="18" viewBox="0 0 18 18" fill="none" xmlns="http://www.w3.org/2000/svg">
<path d="M9 17.25C4.83225 16.3237 1.5 12.3915 1.5 8.25V3.75L9 0.75L16.5 3.75V8.25C16.5 12.393 13.1678 16.3237 9 17.25ZM3 4.5V8.25C3.04286 9.9841 3.65277 11.6564 4.73638 13.0109C5.82 14.3654 7.31761 15.3275 9 15.75C10.6824 15.3275 12.18 14.3654 13.2636 13.0109C14.3472 11.6564 14.9571 9.9841 15 8.25V4.5L9 2.25L3 4.5Z" fill="white"/>
<path d="M9 8.25C10.0355 8.25 10.875 7.41053 10.875 6.375C10.875 5.33947 10.0355 4.5 9 4.5C7.96447 4.5 7.125 5.33947 7.125 6.375C7.125 7.41053 7.96447 8.25 9 8.25Z" fill="white"/>
<path d="M5.25 11.25C5.61967 11.9237 6.16169 12.487 6.8206 12.8823C7.47951 13.2777 8.23164 13.4908 9 13.5C9.76836 13.4908 10.5205 13.2777 11.1794 12.8823C11.8383 12.487 12.3803 11.9237 12.75 11.25C12.7312 9.828 10.2435 9 9 9C7.74975 9 5.26875 9.828 5.25 11.25Z" fill="white"/>
</svg>
